<svg xmlns="http://www.w3.org/2000/svg" width="360" height="160" viewBox="0 0 360 160" fill="none">
  <defs>
    <linearGradient id="gold" x1="0" y1="0" x2="0" y2="1">
      <stop stop-color="#FFF2A8"/>
      <stop offset="0.42" stop-color="#E8BD65"/>
      <stop offset="1" stop-color="#A86B20"/>
    </linearGradient>
    <linearGradient id="red" x1="0" y1="0" x2="1" y2="1">
      <stop stop-color="#FF5966"/>
      <stop offset="0.48" stop-color="#D5162B"/>
      <stop offset="1" stop-color="#790713"/>
    </linearGradient>
  </defs>
  <g>
    <g transform="translate(8 25)">
      <path d="M47 0 89 34 73 91 47 112 21 91 5 34 47 0Z" fill="#110507" stroke="url(#gold)" stroke-width="4"/>
      <path d="M47 10 78 36 67 82 47 98 27 82 16 36 47 10Z" fill="url(#red)" stroke="#F7D47A" stroke-opacity="0.8" stroke-width="2"/>
      <path d="m47 21 8.3 17.7 19.2 2.8-13.9 13.6 3.3 19.1L47 65.1 30.1 74.2l3.3-19.1-13.9-13.6 19.2-2.8L47 21Z" fill="#FFF5CF"/>
      <path d="M27 90h40" stroke="#F3C967" stroke-width="3" stroke-linecap="round"/>
    </g>
    <text x="112" y="42" fill="#FFFFFF" font-size="21" font-family="Arial Black, Impact, sans-serif" font-style="italic" font-weight="900" letter-spacing="1.8">WWE LEGACY</text>
    <path d="M113 51h213" stroke="#D91D31" stroke-width="4" stroke-linecap="round"/>
    <text x="108" y="105" fill="url(#gold)" stroke="#4A070D" stroke-width="2.6" paint-order="stroke fill" font-size="49" font-family="Arial Black, Impact, sans-serif" font-style="italic" font-weight="900" letter-spacing="-2">REWARDS</text>
    <text x="113" y="132" fill="#FFF1C2" font-size="13" font-family="Arial, sans-serif" font-weight="800" letter-spacing="4.2">SEASON EXCLUSIVE</text>
  </g>
</svg>
