<svg xmlns="http://www.w3.org/2000/svg" width="680" height="1000" viewBox="0 0 680 1000">
  <defs><linearGradient id="bg" x1="0" y1="0" x2="1" y2="1"><stop stop-color="#160b22"/><stop offset=".38" stop-color="#3f1d65"/><stop offset=".72" stop-color="#b1278f"/><stop offset="1" stop-color="#28102f"/></linearGradient><radialGradient id="glow" cx="76%" cy="26%" r="58%"><stop stop-color="#ff73e3" stop-opacity=".42"/><stop offset=".38" stop-color="#6c56ff" stop-opacity=".13"/><stop offset="1" stop-opacity="0"/></radialGradient><linearGradient id="frame" x1="0" x2="1"><stop stop-color="#ff8ee8"/><stop offset=".5" stop-color="#fff" stop-opacity=".75"/><stop offset="1" stop-color="#8b6cff"/></linearGradient><linearGradient id="nameFill" x1="0" y1="0" x2="0" y2="1"><stop stop-color="#ffffff"/><stop offset=".58" stop-color="#ffffff"/><stop offset="1" stop-color="#ff54d7"/></linearGradient></defs>
  <rect width="680" height="1000" rx="28" fill="url(#bg)"/><rect width="680" height="1000" fill="url(#glow)"/>
  <g opacity=".22" fill="#f48de8"><path d="M-80 1000L220 0H295L-5 1000Z"/><path d="M70 1000L370 0H445L145 1000Z"/><path d="M220 1000L520 0H595L295 1000Z"/><path d="M370 1000L670 0H745L445 1000Z"/></g>
  <g id="WRESTLER_ARTWORK"/>
  <image id="SET_LOGO" href="../../art/evolution-series-1/evolution-logo.png" x="455" y="35" width="185" height="115" preserveAspectRatio="xMidYMid meet"/>
  <text id="SUPERSTAR_NAME" x="340" y="935" text-anchor="middle" fill="url(#nameFill)" stroke="#351044" stroke-width="8" paint-order="stroke fill" font-size="68" font-family="Arial Black, Impact, sans-serif" font-style="italic" font-weight="900">SUPERSTAR NAME</text>
  <rect x="115" y="955" width="450" height="3" fill="#ff54d7"/>
  <rect x="8" y="8" width="664" height="984" rx="28" fill="none" stroke="url(#frame)" stroke-width="8"/><rect x="20" y="20" width="640" height="960" rx="21" fill="none" stroke="#fff" stroke-opacity=".28" stroke-width="2"/>
</svg>
